<svg xmlns="http://www.w3.org/2000/svg" xmlns:xlink="http://www.w3.org/1999/xlink" width="1329" height="2327.225" viewBox="0 0 1329 2327.225">
  <defs>
    <linearGradient id="linear-gradient" x1="0.5" x2="0.5" y2="1" gradientUnits="objectBoundingBox">
      <stop offset="0" stop-color="#fff"/>
      <stop offset="0.251" stop-color="#f9f7f4"/>
      <stop offset="0.483" stop-color="#f9f7f4"/>
      <stop offset="0.739" stop-color="#f9f7f4"/>
      <stop offset="1" stop-color="#fff"/>
    </linearGradient>
    <clipPath id="clip-path">
      <rect id="Rectángulo_400928" data-name="Rectángulo 400928" width="218" height="370" fill="#12263f" opacity="0.4"/>
    </clipPath>
    <filter id="Elipse_11440" x="1098.197" y="718.496" width="444.421" height="444.421" filterUnits="userSpaceOnUse">
      <feOffset dx="9.39" dy="9.39" input="SourceAlpha"/>
      <feGaussianBlur stdDeviation="25.04" result="blur"/>
      <feFlood flood-opacity="0.078"/>
      <feComposite operator="in" in2="blur"/>
      <feComposite in="SourceGraphic"/>
    </filter>
    <clipPath id="clip-path-2">
      <rect id="Rectángulo_400929" data-name="Rectángulo 400929" width="220" height="374" transform="translate(0 -0.337)" fill="#12263f" opacity="0.4"/>
    </clipPath>
    <filter id="Trazado_872939" x="-196.188" y="169.772" width="447.496" height="447.496" filterUnits="userSpaceOnUse">
      <feOffset dx="9.39" dy="9.39" input="SourceAlpha"/>
      <feGaussianBlur stdDeviation="25.04" result="blur-2"/>
      <feFlood flood-opacity="0.078"/>
      <feComposite operator="in" in2="blur-2"/>
      <feComposite in="SourceGraphic"/>
    </filter>
    <linearGradient id="linear-gradient-2" x1="0.5" y1="1" x2="0.5" gradientUnits="objectBoundingBox">
      <stop offset="0" stop-color="#73c8e2"/>
      <stop offset="1" stop-color="#fff"/>
    </linearGradient>
    <linearGradient id="linear-gradient-3" x1="0.5" y1="1" x2="0.5" gradientUnits="objectBoundingBox">
      <stop offset="0" stop-color="#fff"/>
      <stop offset="1" stop-color="#3ba935"/>
    </linearGradient>
  </defs>
  <g id="Grupo_1101837" data-name="Grupo 1101837" transform="translate(-135.5 -240)">
    <g id="Grupo_1101836" data-name="Grupo 1101836">
      <rect id="Rectángulo_575" data-name="Rectángulo 575" width="1328" height="2327.225" rx="20" transform="translate(136 240)" fill="#fff"/>
      <g id="Grupo_1101704" data-name="Grupo 1101704" transform="translate(-0.5 11.5)">
        <rect id="Rectángulo_400930" data-name="Rectángulo 400930" width="1329" height="805" transform="translate(136 542)" fill="url(#linear-gradient)"/>
        <g id="Enmascarar_grupo_1098648" data-name="Enmascarar grupo 1098648" transform="translate(1247 977)" clip-path="url(#clip-path)">
          <g transform="matrix(1, 0, 0, 1, -1111, -748.5)" filter="url(#Elipse_11440)">
            <circle id="Elipse_11440-2" data-name="Elipse 11440" cx="147.091" cy="147.091" r="147.091" transform="translate(1163.93 784.23)" fill="#fff"/>
          </g>
        </g>
        <g id="Enmascarar_grupo_1098649" data-name="Enmascarar grupo 1098649" transform="translate(136 428.337)" clip-path="url(#clip-path-2)">
          <g transform="matrix(1, 0, 0, 1, 0, -199.84)" filter="url(#Trazado_872939)">
            <path id="Trazado_872939-2" data-name="Trazado 872939" d="M148.628,0A148.628,148.628,0,1,1,0,148.628,148.628,148.628,0,0,1,148.628,0Z" transform="translate(-130.46 235.5)" fill="#fff"/>
          </g>
        </g>
      </g>
      <g id="Grupo_1099918" data-name="Grupo 1099918" transform="translate(137.51 1439.967)">
        <path id="Unión_5" data-name="Unión 5" d="M.488,0V247.628c-.164.253-.326.5-.488.758V453.17c56.853,64.808,174.081,85.265,283.057,82.883,87.128-1.9,169.8-20.1,244.03-45.742,65.65-22.677,125.658-51.222,193.529-71.418,167.611-49.88,355.519-4.8,522.663,45.284,27.24,8.162,54.593,16.281,82.026,24.155v-210.8h1.183V0Z" transform="translate(0.003 9.233)" opacity="0.079" fill="url(#linear-gradient-2)"/>
        <path id="Unión_6" data-name="Unión 6" d="M1048.261,0C940.838,0,836.5,28.478,734.371,58.025c-100.18,28.984-212.8,55.075-313.263,26.207C380.428,72.544,344.462,56.024,305.114,42.9c-44.492-14.839-94.041-25.37-146.262-26.473C99.82,15.181,36.746,24.734,0,54.274v423.8H1326.488V192.37H1325.3V94.052C1291.6,48.321,1213,18.477,1132.432,6.216A558.01,558.01,0,0,0,1048.28,0Z" transform="translate(1326.488 478.071) rotate(180)" opacity="0.079" fill="url(#linear-gradient-3)"/>
      </g>
    </g>
  </g>
</svg>
